
<svg xmlns="http://www.w3.org/2000/svg" version="1.1" xmlns:xlink="http://www.w3.org/1999/xlink" preserveAspectRatio="none" x="0px" y="0px" width="100px" height="100px" viewBox="0 0 100 100">
<defs>
<g id="Layer0_0_FILL">
<path fill="#000000" stroke="none" d="
M 99 0
L 0 0 0 99 99 99 99 0
M 24.65 72.3
Q 27.05 72.35 28.6 73.9 30.15 75.5 30.2 77.85 30.15 80.25 28.6 81.85 27.05 83.4 24.65 83.45 22.25 83.4 20.7 81.85 19.15 80.25 19.1 77.85 19.15 75.5 20.7 73.9 22.25 72.35 24.65 72.3
M 24.6 62.35
L 24.6 54.3 24.6 62.35
M 71.45 73.9
Q 73 72.35 75.4 72.3 77.8 72.35 79.35 73.9 80.9 75.5 80.95 77.85 80.9 80.25 79.35 81.85 77.8 83.4 75.4 83.45 73 83.4 71.45 81.85 69.9 80.25 69.85 77.85 69.9 75.5 71.45 73.9
M 50 72.3
Q 52.4 72.35 53.95 73.9 55.5 75.5 55.55 77.85 55.5 80.25 53.95 81.85 52.4 83.4 50 83.45 47.6 83.4 46.05 81.85 44.5 80.25 44.45 77.85 44.5 75.5 46.05 73.9 47.6 72.35 50 72.3
M 49.8 61.95
L 49.8 39.95 49.8 61.95
M 75.05 61.95
L 75.05 19.55 75.05 61.95 Z"/>

<path fill="#FFFFFF" stroke="none" d="
M 53.95 73.9
Q 52.4 72.35 50 72.3 47.6 72.35 46.05 73.9 44.5 75.5 44.45 77.85 44.5 80.25 46.05 81.85 47.6 83.4 50 83.45 52.4 83.4 53.95 81.85 55.5 80.25 55.55 77.85 55.5 75.5 53.95 73.9
M 75.4 72.3
Q 73 72.35 71.45 73.9 69.9 75.5 69.85 77.85 69.9 80.25 71.45 81.85 73 83.4 75.4 83.45 77.8 83.4 79.35 81.85 80.9 80.25 80.95 77.85 80.9 75.5 79.35 73.9 77.8 72.35 75.4 72.3
M 28.6 73.9
Q 27.05 72.35 24.65 72.3 22.25 72.35 20.7 73.9 19.15 75.5 19.1 77.85 19.15 80.25 20.7 81.85 22.25 83.4 24.65 83.45 27.05 83.4 28.6 81.85 30.15 80.25 30.2 77.85 30.15 75.5 28.6 73.9 Z"/>
</g>

<path id="Layer0_0_1_STROKES" stroke="#FFFFFF" stroke-width="10" stroke-linejoin="round" stroke-linecap="round" fill="none" d="
M 24.848492431640626 62.979817199707036
L 24.848492431640626 54.84850158691406
M 50.303045654296874 62.57577667236328
L 50.303045654296874 40.35354766845703
M 75.80810394287109 62.57577667236328
L 75.80810394287109 19.747480773925783"/>

<path id="Layer0_0_2_STROKES" stroke="#FFFFFF" stroke-width="1" stroke-linejoin="round" stroke-linecap="round" fill="none" d="
M 0 0
L 100.00003051757812 0 100.00003051757812 100.00003051757812 0 100.00003051757812 0 0 Z"/>
</defs>

<g transform="matrix( 1.010101318359375, 0, 0, 1.010101318359375, 0,0) ">
<use xlink:href="#Layer0_0_FILL"/>

<use xlink:href="#Layer0_0_1_STROKES" transform="matrix( 0.989990234375, 0, 0, 0.989990234375, 0,0) "/>

<use xlink:href="#Layer0_0_2_STROKES" transform="matrix( 0.989990234375, 0, 0, 0.989990234375, 0,0) "/>
</g>
</svg>
